<?xml version="1.0" encoding="UTF-8"?>
<!DOCTYPE svg PUBLIC "-//W3C//DTD SVG 1.1//EN" "http://www.w3.org/Graphics/SVG/1.1/DTD/svg11.dtd">
<svg xmlns="http://www.w3.org/2000/svg" version="1.1" width="1024px" height="1024px" style="shape-rendering:geometricPrecision; text-rendering:geometricPrecision; image-rendering:optimizeQuality; fill-rule:evenodd; clip-rule:evenodd" xmlns:xlink="http://www.w3.org/1999/xlink">
<g><path style="opacity:1" fill="#f2d918" d="M 479.5,-0.5 C 500.833,-0.5 522.167,-0.5 543.5,-0.5C 686.202,11.2689 805.036,70.2689 900,176.5C 973.707,263.956 1014.87,364.956 1023.5,479.5C 1023.5,500.833 1023.5,522.167 1023.5,543.5C 1011.73,686.202 952.731,805.036 846.5,900C 759.044,973.707 658.044,1014.87 543.5,1023.5C 522.167,1023.5 500.833,1023.5 479.5,1023.5C 336.798,1011.73 217.964,952.731 123,846.5C 49.2929,759.044 8.12619,658.044 -0.5,543.5C -0.5,522.167 -0.5,500.833 -0.5,479.5C 11.2689,336.798 70.2689,217.964 176.5,123C 263.956,49.2929 364.956,8.12619 479.5,-0.5 Z"/></g>
<g><path style="opacity:1" fill="#010100" d="M 337.5,354.5 C 346.833,354.5 356.167,354.5 365.5,354.5C 365.5,365.833 365.5,377.167 365.5,388.5C 349.952,386.177 336.119,389.844 324,399.5C 320.182,404.942 317.515,410.942 316,417.5C 315.667,435.167 315.333,452.833 315,470.5C 314.892,482.82 311.559,494.153 305,504.5C 297.398,512.099 288.231,516.766 277.5,518.5C 292.521,520.413 303.354,528.08 310,541.5C 312.709,549.291 314.376,557.291 315,565.5C 315.049,590.208 315.715,614.875 317,639.5C 321.873,654.872 332.373,662.872 348.5,663.5C 353.975,664.489 359.642,664.822 365.5,664.5C 365.5,675.833 365.5,687.167 365.5,698.5C 357.167,698.5 348.833,698.5 340.5,698.5C 301.148,696.917 279.315,676.584 275,637.5C 274.667,613.5 274.333,589.5 274,565.5C 272.322,550.83 264.489,541.33 250.5,537C 242.198,535.947 233.865,535.447 225.5,535.5C 225.5,523.833 225.5,512.167 225.5,500.5C 235.964,501.055 246.297,500.222 256.5,498C 268.435,492.37 274.268,482.87 274,469.5C 274.141,448.477 274.808,427.477 276,406.5C 283.61,374.089 304.11,356.756 337.5,354.5 Z"/></g>
<g><path style="opacity:1" fill="#313002" d="M 682.5,354.5 C 674.167,354.5 665.833,354.5 657.5,354.5C 657.5,365.833 657.5,377.167 657.5,388.5C 656.505,377.012 656.172,365.345 656.5,353.5C 665.349,353.174 674.016,353.507 682.5,354.5 Z"/></g>
<g><path style="opacity:1" fill="#020100" d="M 682.5,354.5 C 720.08,355.589 741.914,374.589 748,411.5C 748.333,430.167 748.667,448.833 749,467.5C 749.056,482.531 755.889,493.031 769.5,499C 778.766,500.386 788.1,500.886 797.5,500.5C 797.5,512.5 797.5,524.5 797.5,536.5C 787.767,536.109 778.1,536.609 768.5,538C 755.944,543.259 749.444,552.759 749,566.5C 748.667,590.833 748.333,615.167 748,639.5C 743.075,676.59 721.908,696.257 684.5,698.5C 675.5,698.5 666.5,698.5 657.5,698.5C 657.5,687.167 657.5,675.833 657.5,664.5C 662.363,664.819 667.03,664.486 671.5,663.5C 691.34,663.484 703.173,653.817 707,634.5C 707.333,611.167 707.667,587.833 708,564.5C 708.305,549.901 713.472,537.401 723.5,527C 729.598,523.022 736.265,520.522 743.5,519.5C 744.376,519.631 745.043,519.298 745.5,518.5C 744.675,517.614 743.675,517.281 742.5,517.5C 728.445,515.282 718.612,507.615 713,494.5C 710.317,486.72 708.65,478.72 708,470.5C 707.667,452.5 707.333,434.5 707,416.5C 703.602,400.435 693.768,391.268 677.5,389C 670.842,388.5 664.175,388.334 657.5,388.5C 657.5,377.167 657.5,365.833 657.5,354.5C 665.833,354.5 674.167,354.5 682.5,354.5 Z"/></g>
<g><path style="opacity:1" fill="#332d03" d="M 337.5,354.5 C 346.986,353.506 356.652,353.173 366.5,353.5C 366.828,365.345 366.495,377.012 365.5,388.5C 365.5,377.167 365.5,365.833 365.5,354.5C 356.167,354.5 346.833,354.5 337.5,354.5 Z"/></g>
<g><path style="opacity:1" fill="#b3a011" d="M 550.5,362.5 C 565.005,361.174 579.672,361.174 594.5,362.5C 594.376,363.107 594.043,363.44 593.5,363.5C 579.343,362.504 565.01,362.171 550.5,362.5 Z"/></g>
<g><path style="opacity:1" fill="#010100" d="M 550.5,362.5 C 565.01,362.171 579.343,362.504 593.5,363.5C 550.406,463.358 507.573,563.358 465,663.5C 457.735,664.815 450.235,665.482 442.5,665.5C 435.167,665.167 427.833,664.833 420.5,664.5C 463.334,563.511 506.667,462.845 550.5,362.5 Z"/></g>
<g><path style="opacity:1" fill="#6a5f0b" d="M 742.5,517.5 C 743.675,517.281 744.675,517.614 745.5,518.5C 745.043,519.298 744.376,519.631 743.5,519.5C 743.167,518.833 742.833,518.167 742.5,517.5 Z"/></g>
<g><path style="opacity:1" fill="#4a4208" d="M 348.5,663.5 C 354.5,663.5 360.5,663.5 366.5,663.5C 366.5,675.5 366.5,687.5 366.5,699.5C 357.651,699.826 348.984,699.493 340.5,698.5C 348.833,698.5 357.167,698.5 365.5,698.5C 365.5,687.167 365.5,675.833 365.5,664.5C 359.642,664.822 353.975,664.489 348.5,663.5 Z"/></g>
<g><path style="opacity:1" fill="#4a4607" d="M 671.5,663.5 C 667.03,664.486 662.363,664.819 657.5,664.5C 657.5,675.833 657.5,687.167 657.5,698.5C 666.5,698.5 675.5,698.5 684.5,698.5C 675.348,699.494 666.015,699.827 656.5,699.5C 656.5,687.5 656.5,675.5 656.5,663.5C 661.5,663.5 666.5,663.5 671.5,663.5 Z"/></g>
</svg>
